<?xml version="1.0" encoding="UTF-8" standalone="no"?>
<!-- Created with Inkscape (http://www.inkscape.org/) -->

<svg
   width="539.32678"
   height="272.02945"
   viewBox="0 0 142.69689 71.974459"
   version="1.1"
   id="svg1"
   xml:space="preserve"
   sodipodi:docname="JoypadY.svg"
   inkscape:version="1.3 (0e150ed6c4, 2023-07-21)"
   xmlns:inkscape="http://www.inkscape.org/namespaces/inkscape"
   xmlns:sodipodi="http://sodipodi.sourceforge.net/DTD/sodipodi-0.dtd"
   xmlns="http://www.w3.org/2000/svg"
   xmlns:svg="http://www.w3.org/2000/svg"><sodipodi:namedview
     id="namedview1"
     pagecolor="#505050"
     bordercolor="#eeeeee"
     borderopacity="1"
     inkscape:showpageshadow="0"
     inkscape:pageopacity="0"
     inkscape:pagecheckerboard="0"
     inkscape:deskcolor="#505050"
     inkscape:document-units="px"
     showgrid="false"
     inkscape:zoom="1.4606636"
     inkscape:cx="213.25924"
     inkscape:cy="-13.350097"
     inkscape:window-width="1920"
     inkscape:window-height="1009"
     inkscape:window-x="1912"
     inkscape:window-y="-8"
     inkscape:window-maximized="1"
     inkscape:current-layer="g10" /><defs
     id="defs1"><rect
       x="194.286"
       y="323.15912"
       width="68.341805"
       height="70.294434"
       id="rect9" /></defs><g
     id="g32"
     style="stroke:#000000"
     transform="matrix(0.60445939,0,0,0.60445939,65.603961,210.60062)"><path
       id="circle1"
       style="opacity:0.998192;fill:none;stroke-width:4.669;stroke-linecap:round;stroke-dasharray:none"
       d="m -0.80511862,-340.71261 c 8.7929e-4,0.003 8.3507e-4,0.007 0.00171,0.0103 l -1.18491888,8.5e-4 c 0,3.83331 0.020219,5.03132 0.00171,6.36146 -1.3323135,2.02552 -3.5319976,3.79 -6.3520545,5.13038 -18.503242,-0.33262 -58.532311,-0.73361 -75.859605,-0.41208 -13.362259,9.92095 -21.955773,25.79203 -22.000503,43.55561 1.2e-4,30.04004 24.352521,54.39244 54.392562,54.39256 17.4395,-0.005 33.819339,-8.3714 44.0454718,-22.49807 H 26.767757 c 10.226132,14.12667 26.605972,22.49307 44.045471,22.49807 30.040042,-1.2e-4 54.392442,-24.35252 54.392562,-54.39256 -0.0447,-17.76358 -8.63825,-33.63466 -22.0005,-43.55561 -17.3273,-0.32153 -57.356366,0.0795 -75.859607,0.41208 -2.820057,-1.34038 -5.019741,-3.10486 -6.352055,-5.13038 -0.01851,-1.33014 0.0017,-2.52815 0.0017,-6.36146 l -1.184919,-8.5e-4 c 8.75e-4,-0.003 8.31e-4,-0.007 0.0017,-0.0103 l -10.3086239,0.005 z" /><path
       id="rect10"
       style="opacity:0.998192;fill:none;stroke:#000000;stroke-width:4.669;stroke-linecap:round;stroke-dasharray:none"
       d="m -57.313627,-306.66191 c -2.225797,0 -4.017273,1.96618 -4.017273,4.40862 v 11.35942 h -11.360066 c -2.442431,0 -4.408624,1.79212 -4.408624,4.01792 v 7.73286 c 0,2.2258 1.966193,4.01792 4.408624,4.01792 H -61.3309 v 11.36006 c 0,2.44243 1.791476,4.40862 4.017273,4.40862 h 7.732864 c 2.225796,0 4.017912,-1.96619 4.017912,-4.40862 v -11.36006 h 11.360067 c 2.442431,0 4.408623,-1.79212 4.408623,-4.01792 v -7.73286 c 0,-2.2258 -1.966192,-4.01792 -4.408623,-4.01792 h -11.360067 v -11.35942 c 0,-2.44244 -1.792116,-4.40862 -4.017912,-4.40862 z" /><g
       id="g10"
       transform="matrix(0.78645611,0,0,0.78645611,15.822957,-60.148215)"
       style="fill:none;stroke-width:5.93676;stroke-dasharray:none"><path
         id="circle5"
         style="opacity:0.998192;fill:none;stroke-width:5.93676;stroke-linecap:round;stroke-dasharray:none"
         d="m 86.028872,-305.34457 a 11.931895,11.931895 0 0 1 -11.931895,11.93189 11.931895,11.931895 0 0 1 -11.931895,-11.93189 11.931895,11.931895 0 0 1 11.931895,-11.9319 11.931895,11.931895 0 0 1 11.931895,11.9319 z" /><path
         id="circle7"
         style="opacity:0.998192;fill:none;stroke-width:5.93676;stroke-linecap:round;stroke-dasharray:none"
         d="m 86.028872,-257.98892 a 11.931895,11.931895 0 0 1 -11.931895,11.93189 11.931895,11.931895 0 0 1 -11.931895,-11.93189 11.931895,11.931895 0 0 1 11.931895,-11.9319 11.931895,11.931895 0 0 1 11.931895,11.9319 z" /><path
         id="circle8"
         style="opacity:0.998192;fill:none;stroke-width:5.93676;stroke-linecap:round;stroke-dasharray:none"
         d="m 97.774797,-269.73485 a 11.931895,11.931895 0 0 1 -11.93189,-11.9319 11.931895,11.931895 0 0 1 11.93189,-11.93189 11.931895,11.931895 0 0 1 11.931903,11.93189 11.931895,11.931895 0 0 1 -11.931903,11.9319 z" /><path
         id="circle9"
         style="opacity:0.998192;fill:#000000;stroke-width:5.93676;stroke-linecap:round;stroke-dasharray:none"
         d="m 50.419147,-269.73485 a 11.931895,11.931895 0 0 1 -11.93189,-11.9319 11.931895,11.931895 0 0 1 11.93189,-11.93189 11.931895,11.931895 0 0 1 11.9319,11.93189 11.931895,11.931895 0 0 1 -11.9319,11.9319 z" /></g><g
       id="g12"
       transform="matrix(0.97464035,0,0,0.97464035,0.28900301,-7.7225362)"
       style="stroke-width:4.79049;stroke-dasharray:none"><rect
         style="opacity:0.998192;fill:none;stroke:#000000;stroke-width:4.79049;stroke-linecap:round;stroke-dasharray:none"
         id="rect11"
         width="27.856264"
         height="9.5949364"
         x="165.08575"
         y="-229.94496"
         rx="5.3626108"
         ry="5.8845382"
         transform="rotate(-39.331537)" /><rect
         style="opacity:0.998192;fill:none;stroke:#000000;stroke-width:4.79049;stroke-linecap:round;stroke-dasharray:none"
         id="rect12"
         width="27.856264"
         height="9.5949364"
         x="189.26581"
         y="-210.13158"
         rx="5.3626108"
         ry="5.8845382"
         transform="rotate(-39.331537)" /></g><path
       id="rect13"
       style="opacity:0.998192;fill:none;stroke-width:4.669;stroke-linecap:round;stroke-dasharray:none"
       d="m -77.091525,-346.0758 h 56.822865 c 4.555837,0.2332 6.920026,1.21676 8.24938,6.48951 l 0.07492,4.55035 h -65.147163 c -2.930976,0 -5.290569,-2.46189 -5.290569,-5.51993 0,-3.05804 2.359593,-5.51993 5.290569,-5.51993 z"
       sodipodi:nodetypes="scccsss" /><path
       id="path13"
       style="opacity:0.998192;fill:none;stroke-width:4.669;stroke-linecap:round;stroke-dasharray:none"
       d="M 96.555164,-335.03594 H 31.408001 v -5.6923 c 1.476207,-4.44801 4.926893,-5.38583 8.92663,-5.34756 h 56.220533 c 2.93098,0 5.290566,2.46189 5.290566,5.51993 0,3.05804 -2.359586,5.51993 -5.290566,5.51993 z"
       sodipodi:nodetypes="scccsss" /></g><g
     inkscape:label="Layer 1"
     inkscape:groupmode="layer"
     id="layer1"
     transform="translate(29.758922,132.00559)"><g
       id="g15"
       transform="translate(0,57.719557)" /></g></svg>
