<?xml version="1.0" encoding="UTF-8" standalone="no"?>
<!-- Created with Inkscape (http://www.inkscape.org/) -->

<svg
   width="383.72971"
   height="121.33385"
   viewBox="0 0 101.52849 32.102914"
   version="1.1"
   id="svg1"
   xml:space="preserve"
   sodipodi:docname="KeyBig.svg"
   inkscape:version="1.3 (0e150ed6c4, 2023-07-21)"
   xmlns:inkscape="http://www.inkscape.org/namespaces/inkscape"
   xmlns:sodipodi="http://sodipodi.sourceforge.net/DTD/sodipodi-0.dtd"
   xmlns="http://www.w3.org/2000/svg"
   xmlns:svg="http://www.w3.org/2000/svg"><sodipodi:namedview
     id="namedview1"
     pagecolor="#505050"
     bordercolor="#eeeeee"
     borderopacity="1"
     inkscape:showpageshadow="0"
     inkscape:pageopacity="0"
     inkscape:pagecheckerboard="0"
     inkscape:deskcolor="#505050"
     inkscape:document-units="px"
     showgrid="false"
     inkscape:zoom="0.72426347"
     inkscape:cx="-65.583868"
     inkscape:cy="-159.47235"
     inkscape:window-width="1920"
     inkscape:window-height="1009"
     inkscape:window-x="1912"
     inkscape:window-y="-8"
     inkscape:window-maximized="1"
     inkscape:current-layer="g32" /><defs
     id="defs1"><rect
       x="194.286"
       y="323.15912"
       width="68.341805"
       height="70.294434"
       id="rect9" /></defs><g
     id="g32"
     style="stroke:#000000"
     transform="matrix(0.60445939,0,0,0.60445939,-17.271945,71.723601)"><g
       id="g48"
       transform="translate(68.376011,-120.51272)"><g
         id="g46"
         transform="translate(80.336602,171.81252)"><g
           id="g45"
           transform="translate(-83.760614,-153.84603)"><path
             id="rect40"
             style="opacity:0.998192;fill:none;stroke-width:2.11667;stroke-linecap:round"
             d="M -23.480215,-14.822191 H 118.69039 c 6.55895,0 11.83925,5.2803034 11.83925,11.8392464 V 24.101337 c 0,6.558943 -5.2803,11.839247 -11.83925,11.839247 H -23.480215 c -6.558943,0 -11.839247,-5.280304 -11.839247,-11.839247 V -2.9829446 c 0,-6.558943 5.280304,-11.8392464 11.839247,-11.8392464 z"
             sodipodi:nodetypes="sssssssss" /><g
             id="g44"
             transform="translate(-55.982859,-21.794854)"><path
               id="rect41"
               style="opacity:0.998192;fill:none;stroke-width:2.11667;stroke-linecap:round"
               d="M 31.724542,6.7419844 H 175.45135 c 3.03577,0 5.47972,2.4439543 5.47972,5.4797186 v 28.769643 c 0,3.035764 -2.44395,5.479719 -5.47972,5.479719 H 31.724542 c -3.035764,0 -5.479719,-2.443955 -5.479719,-5.479719 V 12.221703 c 0,-3.0357643 2.443955,-5.4797186 5.479719,-5.4797186 z"
               sodipodi:nodetypes="sssssssss" /><path
               style="opacity:0.998192;fill:#ff0000;stroke:#000000;stroke-width:2.11667;stroke-linecap:round;stroke-dasharray:none"
               d="m 29.181846,45.988041 c -0.516631,1.679051 -2.992791,9.534177 -2.992791,9.534177"
               id="path41"
               sodipodi:nodetypes="cc" /><path
               style="opacity:0.998192;fill:#ff0000;stroke:#000000;stroke-width:2.11667;stroke-linecap:round;stroke-dasharray:none"
               d="m 26.348247,41.828412 -4.794741,7.351937"
               id="path42"
               sodipodi:nodetypes="cc" /><path
               style="opacity:0.998192;fill:#ff0000;stroke:#000000;stroke-width:2.11667;stroke-linecap:round;stroke-dasharray:none"
               d="m 177.7279,46.23852 3.0675,9.428525"
               id="path43"
               sodipodi:nodetypes="cc" /><path
               style="opacity:0.998192;fill:#ff0000;stroke:#000000;stroke-width:2.11667;stroke-linecap:round;stroke-dasharray:none"
               d="m 181.05371,42.68668 4.77885,7.039103"
               id="path44"
               sodipodi:nodetypes="cc" /></g></g></g></g></g><g
     inkscape:label="Layer 1"
     inkscape:groupmode="layer"
     id="layer1"
     transform="translate(-53.116984,-6.8714235)"><g
       id="g15"
       transform="translate(0,57.719557)" /></g></svg>
