<?xml version="1.0" encoding="UTF-8" standalone="no"?>
<!-- Created with Inkscape (http://www.inkscape.org/) -->

<svg
   width="175.06627"
   height="262.05121"
   viewBox="0 0 46.319619 69.334383"
   version="1.1"
   id="svg1"
   xml:space="preserve"
   sodipodi:docname="MouseRoght.svg"
   inkscape:version="1.3 (0e150ed6c4, 2023-07-21)"
   xmlns:inkscape="http://www.inkscape.org/namespaces/inkscape"
   xmlns:sodipodi="http://sodipodi.sourceforge.net/DTD/sodipodi-0.dtd"
   xmlns="http://www.w3.org/2000/svg"
   xmlns:svg="http://www.w3.org/2000/svg"><sodipodi:namedview
     id="namedview1"
     pagecolor="#505050"
     bordercolor="#eeeeee"
     borderopacity="1"
     inkscape:showpageshadow="0"
     inkscape:pageopacity="0"
     inkscape:pagecheckerboard="0"
     inkscape:deskcolor="#505050"
     inkscape:document-units="px"
     showgrid="false"
     inkscape:zoom="1.4485269"
     inkscape:cx="-130.82256"
     inkscape:cy="188.12215"
     inkscape:window-width="1920"
     inkscape:window-height="1009"
     inkscape:window-x="1912"
     inkscape:window-y="-8"
     inkscape:window-maximized="1"
     inkscape:current-layer="g32" /><defs
     id="defs1"><rect
       x="194.286"
       y="323.15912"
       width="68.341805"
       height="70.294434"
       id="rect9" /></defs><g
     id="g32"
     style="stroke:#000000"
     transform="matrix(0.60445939,0,0,0.60445939,-67.357526,151.68968)"><rect
       style="opacity:0.998192;fill:none;stroke-width:3.50175;stroke-linecap:round"
       id="rect1"
       width="73.128075"
       height="111.20303"
       x="113.1852"
       y="-249.20012"
       ry="36.564037" /><rect
       style="opacity:0.998192;fill:none;stroke-width:3.50175;stroke-linecap:round;stroke-dasharray:none"
       id="rect2"
       width="9.4371262"
       height="41.582104"
       x="145.03069"
       y="-241.22702"
       ry="7.0010672" /><path
       id="rect3"
       style="opacity:0.998192;fill:none;stroke-width:3.50175;stroke-linecap:round"
       d="m 124.77478,-231.73301 c 5.78831,-6.89326 13.91699,-12.49736 13.79373,-7.43474 l -0.75546,31.02886 c -0.12326,5.06262 -4.07689,9.14101 -9.14101,9.14101 -5.06412,0 -10.01645,-4.0769 -10.01645,-9.14101 v -7.44347 c 0,-5.06412 1.35918,-10.48197 6.11919,-16.15065 z"
       sodipodi:nodetypes="sssssss" /><path
       id="path3"
       style="opacity:0.998192;fill:#000000;stroke-width:3.50175;stroke-linecap:round"
       d="m 174.25132,-231.73301 c -5.78831,-6.89326 -13.91699,-12.49736 -13.79373,-7.43474 l 0.75546,31.02886 c 0.12326,5.06262 4.07689,9.14101 9.14101,9.14101 5.06412,0 10.01645,-4.0769 10.01645,-9.14101 v -7.44347 c 0,-5.06412 -1.35918,-10.48197 -6.11919,-16.15065 z"
       sodipodi:nodetypes="sssssss" /></g><g
     inkscape:label="Layer 1"
     inkscape:groupmode="layer"
     id="layer1"
     transform="translate(-103.20257,73.09466)"><g
       id="g15"
       transform="translate(0,57.719557)" /></g></svg>
