<?xml version="1.0" encoding="UTF-8" standalone="no"?>
<!-- Created with Inkscape (http://www.inkscape.org/) -->

<svg
   width="26.493654mm"
   height="27.372982mm"
   viewBox="0 0 26.493654 27.372982"
   version="1.1"
   id="svg1"
   inkscape:version="1.3 (0e150ed6c4, 2023-07-21)"
   sodipodi:docname="Player.svg"
   xmlns:inkscape="http://www.inkscape.org/namespaces/inkscape"
   xmlns:sodipodi="http://sodipodi.sourceforge.net/DTD/sodipodi-0.dtd"
   xmlns="http://www.w3.org/2000/svg"
   xmlns:svg="http://www.w3.org/2000/svg">
  <sodipodi:namedview
     id="namedview1"
     pagecolor="#505050"
     bordercolor="#eeeeee"
     borderopacity="1"
     inkscape:showpageshadow="0"
     inkscape:pageopacity="0"
     inkscape:pagecheckerboard="0"
     inkscape:deskcolor="#505050"
     inkscape:document-units="mm"
     inkscape:zoom="1.4485269"
     inkscape:cx="-227.12729"
     inkscape:cy="75.594038"
     inkscape:window-width="1920"
     inkscape:window-height="1009"
     inkscape:window-x="1912"
     inkscape:window-y="-8"
     inkscape:window-maximized="1"
     inkscape:current-layer="layer1" />
  <defs
     id="defs1" />
  <g
     inkscape:label="Layer 1"
     inkscape:groupmode="layer"
     id="layer1"
     transform="translate(-7.0954536,-102.81946)">
    <g
       id="g26"
       transform="translate(346.80376,328.95804)">
      <circle
         style="fill:#e6e6e6;fill-opacity:0.993808;stroke:#000000;stroke-width:1.3;stroke-linecap:round;stroke-linejoin:round;stroke-dasharray:none"
         id="circle25"
         cx="-324.9873"
         cy="-209.64438"
         r="10.228783" />
      <path
         style="fill:#1a1a1a;fill-opacity:0.993808;stroke:#000000;stroke-width:0.78624;stroke-linecap:round;stroke-linejoin:round;stroke-dasharray:none"
         d="m -324.17198,-218.16759 c 0,0 2.33607,2.25445 3.81005,2.90083 0.68038,0.29838 2.1215,0.47626 2.1215,0.47626 1.64653,0.23522 2.70651,1.03821 4.63267,3.98323 -0.40783,-4.4045 -0.16342,-11.02602 -8.09635,-12.42595 l -5.02233,0.38967 2.1215,-2.90083 c -3.80703,-0.0546 -10.69512,2.02241 -9.78489,6.92735 -3.17529,-0.30769 -6.08727,3.47593 -4.45949,8.74579 0.74089,2.32814 1.68449,5.48753 5.38767,8.36733 1.19103,-1.6873 -2.27819,-3.20234 -2.13509,-7.51456 0.38624,-1.75251 1.44454,-3.91815 3.93455,-5.13907 l -0.30307,-2.42457 c 3.56819,4.24501 5.3439,0.54111 11.04048,3.46368 -0.13605,-2.90686 -1.93573,-3.54515 -3.2472,-4.84916 z"
         id="path25"
         sodipodi:nodetypes="csccccccccccccc" />
      <path
         style="fill:#e6e6e6;fill-opacity:0.993808;stroke:#000000;stroke-width:1.10957;stroke-linecap:round;stroke-linejoin:round;stroke-dasharray:none"
         d="m -332.81085,-208.56522 c -3.15798,-2.12386 -3.93536,1.45843 -3.71032,2.91218 0.23312,1.50587 2.92842,2.41236 3.733,1.23951"
         id="path26"
         sodipodi:nodetypes="csc" />
    </g>
  </g>
</svg>
