<?xml version="1.0" encoding="UTF-8" standalone="no"?>
<!-- Created with Inkscape (http://www.inkscape.org/) -->

<svg
   width="2048"
   height="1080"
   viewBox="0 0 541.86666 285.75"
   version="1.1"
   id="svg1"
   xml:space="preserve"
   inkscape:version="1.3 (0e150ed6c4, 2023-07-21)"
   sodipodi:docname="PrimordialBase.svg"
   inkscape:export-filename="PrimordialBase.png"
   inkscape:export-xdpi="96"
   inkscape:export-ydpi="96"
   xmlns:inkscape="http://www.inkscape.org/namespaces/inkscape"
   xmlns:sodipodi="http://sodipodi.sourceforge.net/DTD/sodipodi-0.dtd"
   xmlns="http://www.w3.org/2000/svg"
   xmlns:svg="http://www.w3.org/2000/svg"><sodipodi:namedview
     id="namedview1"
     pagecolor="#505050"
     bordercolor="#eeeeee"
     borderopacity="1"
     inkscape:showpageshadow="0"
     inkscape:pageopacity="0"
     inkscape:pagecheckerboard="0"
     inkscape:deskcolor="#505050"
     inkscape:document-units="px"
     inkscape:zoom="0.51213161"
     inkscape:cx="904.06448"
     inkscape:cy="612.14733"
     inkscape:window-width="1920"
     inkscape:window-height="1009"
     inkscape:window-x="-8"
     inkscape:window-y="-8"
     inkscape:window-maximized="1"
     inkscape:current-layer="layer1" /><defs
     id="defs1" /><g
     inkscape:label="Layer 1"
     inkscape:groupmode="layer"
     id="layer1"><path
       style="fill:none;stroke:#000000;stroke-width:1.12705;stroke-linecap:round;stroke-linejoin:round;stroke-dasharray:none"
       d="m 396.92884,75.471663 c -11.09631,2.163867 -13.01664,18.816138 -19.52496,28.224187 -8.44082,1.02416 -11.20177,5.60287 -30.76074,9.02925 -2.3832,-0.9287 -4.75003,-2.32702 -8.02748,-0.75184 -2.73819,1.43145 -4.27953,3.67509 -5.28788,6.02798 1.48737,1.55817 3.23984,2.77547 5.9928,2.70644 2.9715,-0.76594 5.27604,-2.19888 7.73264,-3.47969 15.95621,-3.24975 21.84656,0.97573 35.16213,-6.10303 7.68662,-9.21488 14.13756,-16.234835 22.25282,-30.627073 0.36188,-4.390681 -1.36011,-6.81326 -7.53933,-5.026224 z"
       id="path1"
       sodipodi:nodetypes="cccccccccc" /><path
       style="fill:none;stroke:#000000;stroke-width:1.12705;stroke-linecap:round;stroke-linejoin:round;stroke-dasharray:none"
       d="m 398.26719,75.396003 c -10.934,-2.873662 -19.90059,11.289189 -29.85088,16.933757 -8.04711,-2.746011 -12.52359,0.177755 -31.62796,-5.236719 -1.74274,-1.872165 -3.26666,-4.160145 -6.90298,-4.165888 -3.08819,0.09915 -5.45144,1.449999 -7.38216,3.130823 0.66238,2.049737 1.71166,3.907684 4.22104,5.041964 3.00908,0.601577 5.70734,0.312624 8.47648,0.226717 15.78287,4.007815 19.25143,10.373333 34.3202,9.784993 10.92753,-4.95849 19.78828,-8.477229 33.35195,-17.912327 2.23414,-3.797049 1.73613,-6.727255 -4.60569,-7.80332 z"
       id="path2"
       sodipodi:nodetypes="cccccccccc" /><path
       style="fill:none;stroke:#000000;stroke-width:1.12705;stroke-linecap:round;stroke-linejoin:round;stroke-dasharray:none"
       d="m 430.8337,76.895112 c 10.90966,-2.964766 19.99408,11.122788 29.99113,16.684165 8.02392,-2.813031 12.52464,0.07333 31.58318,-5.500381 1.72707,-1.886615 3.23184,-4.187257 6.86798,-4.223308 3.08891,0.07333 5.46334,1.404467 7.40804,3.069115 -0.64528,2.055185 -1.67902,3.921838 -4.17885,5.07699 -3.00395,0.626687 -5.70453,0.360244 -8.47427,0.297445 -15.7489,4.139341 -19.16426,10.533542 -34.23743,10.070952 -10.9685,-4.867191 -19.85829,-8.311888 -33.50021,-17.633488 -2.26573,-3.778312 -1.79217,-6.712573 4.54043,-7.84149 z"
       id="path3"
       sodipodi:nodetypes="cccccccccc" /><path
       style="fill:none;stroke:#000000;stroke-width:1.12705;stroke-linecap:round;stroke-linejoin:round;stroke-dasharray:none"
       d="m 433.10311,77.050704 c 11.09632,2.16385 13.01665,18.816122 19.52494,28.224186 8.44083,1.02415 11.20181,5.60286 30.76078,9.02923 2.3832,-0.9287 4.75003,-2.32701 8.02749,-0.75182 2.7382,1.43145 4.27953,3.6751 5.28787,6.02799 -1.48737,1.55815 -3.23984,2.77545 -5.9928,2.70643 -2.9715,-0.76596 -5.27602,-2.19888 -7.73264,-3.47969 -15.95621,-3.24975 -21.84658,0.97572 -35.16215,-6.10304 -7.68661,-9.21486 -14.13758,-16.234828 -22.25281,-30.627079 -0.36189,-4.390681 1.36011,-6.813243 7.53932,-5.026207 z"
       id="path4"
       sodipodi:nodetypes="cccccccccc" /><path
       style="fill:none;stroke:#000000;stroke-width:1.32521;stroke-linecap:round;stroke-linejoin:round;stroke-dasharray:none"
       d="m 420.80695,134.41468 c 6.77207,-7.84351 10.62287,-4.41926 14.46573,-0.96437 4.63837,20.02099 3.56,40.15061 1.12509,59.3094 -1.41004,14.15644 -2.64026,25.80113 -4.66116,40.02181 3.7877,5.94935 9.05473,10.10233 14.95599,13.4852 -0.086,2.73581 -6.28806,4.97913 -10.13409,0.65906 -5.21184,-5.36262 -10.6975,-2.47643 -15.75156,-4.17899 -3.26968,-1.6244 -0.0626,-8.31691 4.17901,-10.28672 1.80621,-18.63223 -7.0857,-28.46802 1.28583,-40.18256 -2.79456,-25.21104 -14.06248,-37.83099 -5.46484,-57.86283 z"
       id="path5"
       sodipodi:nodetypes="cccccccccc" /><path
       style="fill:none;stroke:#000000;stroke-width:1.32521;stroke-linecap:round;stroke-linejoin:round;stroke-dasharray:none"
       d="m 410.09029,135.37907 c -6.77208,-7.84353 -10.62289,-4.41928 -14.46575,-0.96439 -4.63835,20.021 -3.56,40.15061 -1.12509,59.30941 1.41004,14.15643 2.64026,25.80112 4.66117,40.02182 -3.78771,5.94933 -9.05473,10.10231 -14.95599,13.48519 0.086,2.7358 6.28805,4.97914 10.13408,0.65905 5.21185,-5.36261 10.6975,-2.47643 15.75158,-4.17898 3.26968,-1.62441 0.0627,-8.31692 -4.17899,-10.28672 -1.80625,-18.63222 7.08568,-28.46801 -1.28586,-40.18255 2.79457,-25.21106 14.06249,-37.831 5.46485,-57.86283 z"
       id="path6"
       sodipodi:nodetypes="cccccccccc" /><path
       style="fill:none;stroke:#000000;stroke-width:1.24638;stroke-linecap:round;stroke-linejoin:round;stroke-dasharray:none"
       d="m 409.11196,69.747661 c -4.23304,4.664788 -12.60758,2.585884 -17.06619,8.124981 -1.42691,1.80574 -2.97252,12.204366 8.55144,7.482523 -5.32834,7.114527 0.95051,16.980515 0.42758,25.012965 -0.32686,5.02057 -6.66185,14.35437 -6.1998,25.65434 -0.23263,8.00813 6.43258,9.04119 20.30968,5.07742 8.10229,4.37355 21.82757,2.03893 21.16482,-6.36015 -1.56432,-7.95924 -1.16022,-13.68205 -6.41359,-24.15782 -3.9466,-7.86994 7.9892,-16.532206 0.42758,-25.654338 4.61848,2.365344 14.40545,-2.864758 7.29354,-8.374342 -7.12571,-4.810678 -11.31027,-2.395797 -15.6312,-6.804469 -3.81402,1.776922 -7.85179,2.714693 -12.86386,-0.0011 z"
       id="path7"
       sodipodi:nodetypes="cccscccscccc" /><path
       style="fill:none;stroke:#000000;stroke-width:1.24638;stroke-linecap:round;stroke-linejoin:round;stroke-dasharray:none"
       d="m 400.65067,85.622401 c -10.81305,13.662919 9.01609,21.639209 12.66682,8.444543"
       id="path8"
       sodipodi:nodetypes="cc" /><path
       style="fill:none;stroke:#000000;stroke-width:1.24638;stroke-linecap:round;stroke-linejoin:round;stroke-dasharray:none"
       d="m 430.17027,85.622401 c 10.81304,13.662919 -9.01611,21.639209 -12.66684,8.444543"
       id="path9"
       sodipodi:nodetypes="cc" /><path
       style="fill:none;stroke:#000000;stroke-width:1.24638;stroke-linecap:round;stroke-linejoin:round;stroke-dasharray:none"
       d="m 408.45383,70.497033 c 1.13542,-3.397625 2.42191,-6.770057 1.06894,-10.582418 3.74132,-1.976775 7.62498,-1.960438 11.65136,0.05347 -0.84411,3.509651 0.22264,7.019319 0.85513,10.528971 -3.74347,2.465283 -7.98824,3.349491 -13.57543,-1.7e-5 z"
       id="path10"
       sodipodi:nodetypes="ccccc" /><path
       style="fill:none;stroke:#000000;stroke-width:1.24638;stroke-linecap:round;stroke-linejoin:round;stroke-dasharray:none"
       d="m 415.34846,66.060966 c -4.09652,-0.594526 -7.36174,-3.571854 -8.28423,-9.994497 -1.04308,-7.262526 -0.52802,-8.31881 0.0535,-11.277215 0.85393,-4.344687 5.20223,-5.264483 8.23077,-5.291204 6.19296,-0.05463 7.98902,3.006719 8.33765,5.451545 0.42986,3.014573 0.85015,5.376154 -2e-5,11.116874 -1.12822,7.618414 -5.21828,9.378271 -8.33761,9.994497 z"
       id="path11"
       sodipodi:nodetypes="csssssc" /><path
       style="fill:none;stroke:#000000;stroke-width:1.12705;stroke-linecap:round;stroke-linejoin:round;stroke-dasharray:none"
       d="m 111.25356,90.084209 c -11.09631,2.163867 -13.016639,18.816141 -19.524959,28.224191 -8.44082,1.02416 -11.20177,5.60287 -30.760735,9.02925 -2.3832,-0.9287 -4.75003,-2.32702 -8.02748,-0.75184 -2.73819,1.43145 -4.27953,3.67509 -5.28788,6.02798 1.48737,1.55817 3.23984,2.77547 5.9928,2.70644 2.9715,-0.76594 5.27604,-2.19888 7.73264,-3.47969 15.956205,-3.24975 21.846555,0.97573 35.162125,-6.10303 7.686619,-9.21488 14.137559,-16.23484 22.252819,-30.627077 0.36188,-4.390681 -1.36011,-6.81326 -7.53933,-5.026224 z"
       id="path12"
       sodipodi:nodetypes="cccccccccc" /><path
       style="fill:none;stroke:#000000;stroke-width:1.12705;stroke-linecap:round;stroke-linejoin:round;stroke-dasharray:none"
       d="M 105.65095,52.015929 C 94.716951,49.142267 85.750361,63.305118 75.800071,68.949686 c -8.04711,-2.746011 -12.52359,0.177755 -31.627955,-5.236719 -1.74274,-1.872165 -3.26666,-4.160145 -6.90298,-4.165888 -3.08819,0.09915 -5.45144,1.449999 -7.38216,3.130823 0.66238,2.049737 1.71166,3.907684 4.22104,5.041964 3.00908,0.601577 5.70734,0.312624 8.47648,0.226717 15.78287,4.007815 19.25143,10.373333 34.320195,9.784993 10.92753,-4.95849 19.78828,-8.477229 33.351949,-17.912327 2.23414,-3.797049 1.73613,-6.727255 -4.60569,-7.80332 z"
       id="path13"
       sodipodi:nodetypes="cccccccccc" /><path
       style="fill:none;stroke:#000000;stroke-width:1.12705;stroke-linecap:round;stroke-linejoin:round;stroke-dasharray:none"
       d="m 211.64551,54.245666 c 10.90966,-2.964766 19.99408,11.122788 29.99113,16.684165 8.02392,-2.813031 12.52464,0.07333 31.58318,-5.500381 1.72707,-1.886615 3.23184,-4.187257 6.86798,-4.223308 3.08891,0.07333 5.46334,1.404467 7.40804,3.069115 -0.64528,2.055185 -1.67902,3.921838 -4.17885,5.07699 -3.00395,0.626687 -5.70453,0.360244 -8.47427,0.297445 -15.7489,4.139341 -19.16426,10.533542 -34.23743,10.070952 -10.9685,-4.867191 -19.85829,-8.311888 -33.50021,-17.633488 -2.26573,-3.778312 -1.79217,-6.712573 4.54043,-7.84149 z"
       id="path14"
       sodipodi:nodetypes="cccccccccc" /><path
       style="fill:none;stroke:#000000;stroke-width:1.12705;stroke-linecap:round;stroke-linejoin:round;stroke-dasharray:none"
       d="m 215.37617,105.91048 c 11.09632,2.16385 13.01665,18.81612 19.52494,28.22419 8.44083,1.02415 11.20181,5.60286 30.76078,9.02923 2.3832,-0.9287 4.75003,-2.32701 8.02749,-0.75182 2.7382,1.43145 4.27953,3.6751 5.28787,6.02799 -1.48737,1.55815 -3.23984,2.77545 -5.9928,2.70643 -2.9715,-0.76596 -5.27602,-2.19888 -7.73264,-3.47969 -15.95621,-3.24975 -21.84658,0.97572 -35.16215,-6.10304 -7.68661,-9.21486 -14.13758,-16.23483 -22.25281,-30.62708 -0.36189,-4.39068 1.36011,-6.81324 7.53932,-5.02621 z"
       id="path15"
       sodipodi:nodetypes="cccccccccc" /><path
       style="fill:none;stroke:#000000;stroke-width:1.32521;stroke-linecap:round;stroke-linejoin:round;stroke-dasharray:none"
       d="m 195.40842,159.25601 c 6.77207,-7.84351 10.62287,-4.41926 14.46573,-0.96437 4.63837,20.02099 3.56,40.15061 1.12509,59.3094 -1.41004,14.15644 -2.64026,25.80113 -4.66116,40.02181 3.7877,5.94935 9.05473,10.10233 14.95599,13.4852 -0.086,2.73581 -6.28806,4.97913 -10.13409,0.65906 -5.21184,-5.36262 -10.6975,-2.47643 -15.75156,-4.17899 -3.26968,-1.6244 -0.0626,-8.31691 4.17901,-10.28672 1.80621,-18.63223 -7.0857,-28.46802 1.28583,-40.18256 -2.79456,-25.21104 -14.06248,-37.83099 -5.46484,-57.86283 z"
       id="path16"
       sodipodi:nodetypes="cccccccccc" /><path
       style="fill:none;stroke:#000000;stroke-width:1.32521;stroke-linecap:round;stroke-linejoin:round;stroke-dasharray:none"
       d="m 123.68438,160.2204 c -6.77208,-7.84353 -10.62289,-4.41928 -14.46575,-0.96439 -4.63835,20.021 -3.56,40.15061 -1.12509,59.30941 1.41004,14.15643 2.64026,25.80112 4.66117,40.02182 -3.78771,5.94933 -9.05473,10.10231 -14.955987,13.48519 0.086,2.7358 6.288047,4.97914 10.134077,0.65905 5.21185,-5.36261 10.6975,-2.47643 15.75158,-4.17898 3.26968,-1.62441 0.0627,-8.31692 -4.17899,-10.28672 -1.80625,-18.63222 7.08568,-28.46801 -1.28586,-40.18255 2.79457,-25.21106 14.06249,-37.831 5.46485,-57.86283 z"
       id="path17"
       sodipodi:nodetypes="cccccccccc" /><g
       id="g22"
       transform="translate(0.7306273,11.142066)"
       style="stroke:#000000"><path
         style="fill:none;stroke:#000000;stroke-width:1.24638;stroke-linecap:round;stroke-linejoin:round;stroke-dasharray:none"
         d="m 153.3924,69.747661 c -4.23304,4.664788 -12.60758,2.585884 -17.06619,8.124981 -1.42691,1.80574 -2.97252,12.204366 8.55144,7.482523 -5.32834,7.114527 0.95051,16.980515 0.42758,25.012965 -0.32686,5.02057 -6.66185,14.35437 -6.1998,25.65434 -0.23263,8.00813 6.43258,9.04119 20.30968,5.07742 8.10229,4.37355 21.82757,2.03893 21.16482,-6.36015 -1.56432,-7.95924 -1.16022,-13.68205 -6.41359,-24.15782 -3.9466,-7.86994 7.9892,-16.532206 0.42758,-25.654338 4.61848,2.365344 14.40545,-2.864758 7.29354,-8.374342 -7.12571,-4.810678 -11.31027,-2.395797 -15.6312,-6.804469 -3.81402,1.776922 -7.85179,2.714693 -12.86386,-0.0011 z"
         id="path18"
         sodipodi:nodetypes="cccscccscccc" /><path
         style="fill:none;stroke:#000000;stroke-width:1.24638;stroke-linecap:round;stroke-linejoin:round;stroke-dasharray:none"
         d="m 144.93111,85.622401 c -10.81305,13.662919 9.01609,21.639209 12.66682,8.444543"
         id="path19"
         sodipodi:nodetypes="cc" /><path
         style="fill:none;stroke:#000000;stroke-width:1.24638;stroke-linecap:round;stroke-linejoin:round;stroke-dasharray:none"
         d="m 174.45071,85.622401 c 10.81304,13.662919 -9.01611,21.639209 -12.66684,8.444543"
         id="path20"
         sodipodi:nodetypes="cc" /></g><path
       style="fill:none;stroke:#000000;stroke-width:1.24638;stroke-linecap:round;stroke-linejoin:round;stroke-dasharray:none"
       d="m 154.01287,66.11327 c 1.13542,-3.397625 2.42191,-6.770057 1.06894,-10.582418 3.74132,-1.976775 7.62498,-1.960438 11.65136,0.05347 -0.84411,3.509651 0.22264,7.019319 0.85513,10.528971 -3.74347,2.465283 -7.98824,3.349491 -13.57543,-1.7e-5 z"
       id="path21"
       sodipodi:nodetypes="ccccc" /><path
       style="fill:none;stroke:#000000;stroke-width:1.24638;stroke-linecap:round;stroke-linejoin:round;stroke-dasharray:none"
       d="m 160.54218,40.671668 c -4.09652,-0.594526 -7.36174,-3.571854 -8.28423,-9.994497 -1.04308,-7.262526 -0.52802,-8.31881 0.0535,-11.277215 0.85393,-4.344687 5.20223,-5.264483 8.23077,-5.291204 6.19296,-0.05463 7.98902,3.006719 8.33765,5.451545 0.42986,3.014573 0.85015,5.376154 -2e-5,11.116874 -1.12822,7.618414 -5.21828,9.378271 -8.33761,9.994497 z"
       id="path22"
       sodipodi:nodetypes="csssssc" /></g></svg>
