<?xml version="1.0" encoding="UTF-8" standalone="no"?>
<!-- Created with Inkscape (http://www.inkscape.org/) -->

<svg
   width="4048"
   height="2048"
   viewBox="0 0 1071.0334 541.86665"
   version="1.1"
   id="svg1"
   xml:space="preserve"
   inkscape:version="1.3 (0e150ed6c4, 2023-07-21)"
   sodipodi:docname="PlayerBase.svg"
   inkscape:export-filename="PlayerBase.png"
   inkscape:export-xdpi="96"
   inkscape:export-ydpi="96"
   xmlns:inkscape="http://www.inkscape.org/namespaces/inkscape"
   xmlns:sodipodi="http://sodipodi.sourceforge.net/DTD/sodipodi-0.dtd"
   xmlns="http://www.w3.org/2000/svg"
   xmlns:svg="http://www.w3.org/2000/svg"><sodipodi:namedview
     id="namedview1"
     pagecolor="#505050"
     bordercolor="#eeeeee"
     borderopacity="1"
     inkscape:showpageshadow="0"
     inkscape:pageopacity="0"
     inkscape:pagecheckerboard="0"
     inkscape:deskcolor="#505050"
     inkscape:document-units="px"
     inkscape:zoom="0.36213173"
     inkscape:cx="926.45845"
     inkscape:cy="1362.7638"
     inkscape:window-width="1920"
     inkscape:window-height="1009"
     inkscape:window-x="1912"
     inkscape:window-y="-8"
     inkscape:window-maximized="1"
     inkscape:current-layer="layer1" /><defs
     id="defs1" /><g
     inkscape:label="Layer 1"
     inkscape:groupmode="layer"
     id="layer1"
     transform="translate(537.46218,904.17315)"><path
       style="fill:#b3b3b3;stroke:#000000;stroke-width:1.3428;stroke-linecap:round;stroke-linejoin:round"
       d="m 294.02663,-578.92945 c -28.22579,24.56506 -67.01133,41.71654 -116.19531,6.4553 11.30647,-20.76947 24.33617,-39.3856 26.68185,-67.99578 l 60.67979,-6.45526 c 4.48187,23.23467 15.17103,45.90864 28.83367,67.99574 z"
       id="path18"
       sodipodi:nodetypes="ccccc" /><path
       style="fill:#808080;stroke:#000000;stroke-width:1.3428;stroke-linecap:round;stroke-linejoin:round"
       d="m 334.39799,-641.96422 c 0.73747,-21.32145 22.19526,-7.76531 24.60288,-5.27891 16.31796,26.78479 15.86075,32.81678 49.51426,60.05483 3.83446,4.77595 8.61218,9.14146 3.02398,16.76822 -5.6937,6.72649 -10.03475,11.02649 -21.17476,13.52222 -4.08412,0.0167 -6.5613,1.84248 -9.66686,-6.8583 -8.74745,-28.26545 -36.14644,-40.3163 -46.2995,-78.20806 z"
       id="path21"
       sodipodi:nodetypes="ccccccc" /><path
       style="fill:#cccccc;stroke:#000000;stroke-width:1.3428;stroke-linecap:round;stroke-linejoin:round"
       d="m -22.04407,-376.0729 c -3.736313,-17.67819 20.8558249,-43.8125 30.3407289,-49.41475 4.4162891,-2.77113 6.2700821,-6.17645 7.3082581,-9.51519 3.269752,-18.39089 9.608929,-39.19988 15.076296,-49.66956 5.973098,-8.61093 23.308943,-12.82483 27.541139,3.69404 -0.730378,13.76265 -10.035894,43.6584 -20.455262,59.35271 -2.288609,3.44722 -5.08515,6.67091 -9.308515,9.48112 -6.513343,4.33401 -12.031888,10.41198 -19.8389831,15.19579 -9.688963,5.93693 -17.87836,13.91136 -25.2813489,22.62604 -2.004031,2.35919 -4.125798,3.21087 -5.382313,-1.7502 z"
       id="path19"
       sodipodi:nodetypes="cccccssssc" /><path
       style="fill:#f9f9f9;stroke:#000000;stroke-width:1.3428;stroke-linecap:round;stroke-linejoin:round"
       d="m 345.74609,-384.77482 c -17.65866,-3.82756 -31.43636,-36.96291 -32.66511,-47.91001 -0.72055,-5.16369 -3.06864,-8.24897 -5.68989,-10.56291 -15.441,-10.51145 -31.83171,-24.81328 -39.14603,-34.08732 -5.41138,-8.97458 -2.15969,-26.51638 14.64422,-23.61582 12.25779,6.30006 35.72486,27.02791 45.7789,42.95875 2.20832,3.49914 4.00476,7.37028 4.83997,12.37397 1.28806,7.71669 4.57446,15.23972 5.74332,24.32096 1.45057,11.2703 5.37399,22.00646 10.29468,32.32811 1.33218,2.79418 1.24066,5.07865 -3.80006,4.19427 z"
       id="path12"
       sodipodi:nodetypes="cccccssssc" /><path
       style="fill:#ffffff;stroke:#000000;stroke-width:1.3428;stroke-linecap:round;stroke-linejoin:round"
       d="m 50.342977,-658.33852 c 1.844628,-2.46484 5.612644,-6.77321 9.525666,-5.07535 5.218661,2.26441 12.706783,2.51224 20.352636,-1.95589 2.541036,-1.48494 4.285304,1.3298 6.002318,3.0502 9.150578,4.72001 34.009043,83.79661 44.801183,103.95455 1.49681,2.79581 1.0956,5.64519 -6.53606,2.49353 -28.075508,-11.5945 -66.736061,35.99369 -106.09608,11.18525 -3.605643,-2.60778 -2.980796,-3.38136 -0.631709,-7.50324 10.960645,-17.68614 29.17309,-81.5411 32.68961,-108.19333 z"
       id="path13"
       sodipodi:nodetypes="csscsscccc" /><path
       style="fill:#ffffff;stroke:#000000;stroke-width:1.3428;stroke-linecap:round;stroke-linejoin:round"
       d="m 135.67824,-697.54496 0.64551,-16.67614 c 8.06777,-7.14094 15.40698,-4.75982 20.33417,-0.10764 l -1.18346,15.4927 c -6.00652,4.12331 -12.35682,4.90546 -19.79622,1.29108 z"
       id="path14"
       sodipodi:nodetypes="ccccc" /><path
       style="fill:#999999;stroke:#000000;stroke-width:1.3428;stroke-linecap:round;stroke-linejoin:round"
       d="m 412.5977,-791.33433 c -29.07779,-7.15593 -18.69574,-65.76034 -50.13617,-87.57678 -100.43349,35.82351 -50.64359,121.48691 -21.73284,128.02994 8.20495,1.31274 59.10372,-6.61896 56.80658,-35.50413 8.12335,0.28956 11.37234,-2.46767 15.06243,-4.94903 z"
       id="path15"
       sodipodi:nodetypes="ccccc" /><path
       style="fill:#cccccc;stroke:#000000;stroke-width:1.3428;stroke-linecap:round;stroke-linejoin:round"
       d="m 100.85076,-777.23722 c 23.75378,18.76772 86.72726,17.79894 105.28965,-11.86791 7.9083,-20.54512 2.965,-53.26192 -1.2649,-77.15832 -4.74403,-26.62336 -44.44364,-34.66432 -64.16077,-30.26146 -16.03574,2.41196 -34.72272,10.59619 -41.385492,24.04014 -12.189021,19.92418 -18.238688,76.00541 1.521512,95.24755 z"
       id="path16"
       sodipodi:nodetypes="cccccc" /><path
       style="fill:#f9f9f9;stroke:#000000;stroke-width:1.3428;stroke-linecap:round;stroke-linejoin:round"
       d="m 2.5076389,-751.32533 c -41.9772209,3.2313 -62.9782909,-75.82703 -44.1923609,-99.29579 1.05981,28.82916 20.009603,38.95522 47.7759509,39.86398 -10.061914,-2.86008 -19.8198149,-7.41401 -27.0831899,-25.86597 10.114326,17.63836 33.515295,14.25351 48.080256,24.34445 -16.191641,-18.06849 -2.20214,-49.26315 -40.079178,-62.91739 -37.364009,-13.46929 -78.131969,-6.35574 -96.553917,26.09646 -14.93392,26.30759 -6.39848,65.95068 -42.29846,80.03228 7.70587,1.87934 16.51415,-0.45992 24.35534,-4.2166 1.23014,25.02981 24.90549,28.3716 51.870828,26.67712 28.40449,9.52619 57.78229,2.31366 78.1247309,-4.71854 z"
       id="path17"
       sodipodi:nodetypes="cccccsscccc" /><path
       style="fill:#f9f9f9;stroke:#000000;stroke-width:1.3428;stroke-linecap:round;stroke-linejoin:round"
       d="m -43.026602,-656.7479 c 20.345663,-10.71838 15.697673,12.3208 14.20164,19.36586 -2.10734,32.78336 -20.76286,40.75839 -46.98676,84.27085 -3.73713,4.85248 -9.08886,9.35296 -17.81822,5.72063 -7.879348,-3.94701 -18.655388,-2.67593 -21.265568,-13.819 -0.97785,-3.96534 -5.01719,-12.54071 5.59459,-15.06237 26.051668,-12.50402 35.621878,-60.68595 66.274318,-80.47597 z"
       id="path20"
       sodipodi:nodetypes="ccccccc" /><g
       id="g31"
       transform="matrix(3.3319908,0,0,3.3319908,-446.88187,-837.1224)"
       inkscape:export-filename=".\PlayerModel.png"
       inkscape:export-xdpi="96"
       inkscape:export-ydpi="96"><path
         style="fill:#b3b3b3;stroke:#000000;stroke-width:0.403;stroke-linecap:round;stroke-linejoin:round"
         d="m 58.463395,85.545055 c -8.471141,7.37249 -20.111491,12.52001 -34.872629,1.93737 3.39331,-6.23335 7.303799,-11.82044 8.007789,-20.40695 l 18.211259,-1.93736 c 1.3451,6.97321 4.55314,13.77814 8.653581,20.40694 z"
         id="path22"
         sodipodi:nodetypes="ccccc" /><path
         style="fill:#808080;stroke:#000000;stroke-width:0.403;stroke-linecap:round;stroke-linejoin:round"
         d="m 40.258664,58.590105 c 0.22132,-6.39901 6.66125,-2.33053 7.38383,-1.58431 4.89736,8.03867 4.76014,9.849 14.860251,18.02371 1.1508,1.43336 2.5847,2.74354 0.90756,5.03249 -1.70878,2.01876 -3.01163,3.30928 -6.354981,4.0583 -1.22573,0.005 -1.96919,0.55297 -2.90122,-2.05832 -2.62528,-8.48305 -10.8483,-12.09976 -13.89544,-23.47187 z"
         id="path23"
         sodipodi:nodetypes="ccccccc" /><path
         style="fill:#cccccc;stroke:#000000;stroke-width:0.403;stroke-linecap:round;stroke-linejoin:round"
         d="m 19.862287,114.27894 c -1.121345,-5.30559 6.259269,-13.14904 9.105887,-14.830395 1.325421,-0.83168 1.881781,-1.85368 2.193361,-2.85571 0.98132,-5.51948 2.88384,-11.7647 4.52471,-14.90687 1.79265,-2.58432 6.995499,-3.849 8.265669,1.10866 -0.2192,4.13046 -3.01198,13.1028 -6.139049,17.812995 -0.68686,1.03457 -1.52616,2.00206 -2.79368,2.84548 -1.95479,1.30072 -3.61102,3.12484 -5.954093,4.56057 -2.90786,1.78179 -5.365669,4.17509 -7.587461,6.79054 -0.601451,0.70805 -1.238237,0.96365 -1.615344,-0.52527 z"
         id="path24"
         sodipodi:nodetypes="cccccssssc" /><path
         style="fill:#f9f9f9;stroke:#000000;stroke-width:0.403;stroke-linecap:round;stroke-linejoin:round"
         d="m 61.194124,115.94407 c -5.299731,-1.14873 -9.434701,-11.09333 -9.803481,-14.37878 -0.21625,-1.54974 -0.92096,-2.475699 -1.70765,-3.170159 -4.63416,-3.15471 -9.553369,-7.44699 -11.748539,-10.23032 -1.62407,-2.69346 -0.64817,-7.95812 4.395029,-7.0876 3.67882,1.89078 10.72178,8.11164 13.73921,12.89282 0.66276,1.05017 1.20191,2.21197 1.45257,3.71368 0.38657,2.31595 1.37289,4.573769 1.72369,7.299249 0.43535,3.38244 1.61285,6.60458 3.089651,9.70232 0.39981,0.83859 0.37235,1.52421 -1.14048,1.25879 z"
         id="path25"
         sodipodi:nodetypes="cccccssssc" /><path
         style="fill:#ffffff;stroke:#000000;stroke-width:0.403;stroke-linecap:round;stroke-linejoin:round"
         d="m 34.098225,54.589115 c 0.55361,-0.73975 1.68447,-2.03278 2.85885,-1.52322 1.566229,0.6796 3.813569,0.75398 6.108249,-0.587 0.76262,-0.44566 1.28611,0.3991 1.80142,0.91543 2.74628,1.41657 10.20683,25.14911 13.445771,31.19893 0.44922,0.83908 0.32881,1.69424 -1.961601,0.74836 -8.42605,-3.47975 -20.028889,10.80246 -31.841654,3.35693 -1.08213,-0.78265 -0.8946,-1.01482 -0.18959,-2.25188 3.28952,-5.30798 8.755455,-24.47219 9.810835,-32.47108 z"
         id="path26"
         sodipodi:nodetypes="csscsscccc" /><path
         style="fill:#ffffff;stroke:#000000;stroke-width:0.403;stroke-linecap:round;stroke-linejoin:round"
         d="m 37.327165,53.765725 0.19373,-5.00486 c 2.421309,-2.14314 4.623959,-1.42852 6.102709,-0.0323 l -0.35518,4.64968 c -1.80268,1.23749 -3.70854,1.47223 -5.941259,0.38748 z"
         id="path27"
         sodipodi:nodetypes="ccccc" /><path
         style="fill:#999999;stroke:#000000;stroke-width:0.403;stroke-linecap:round;stroke-linejoin:round"
         d="m 65.935635,37.879315 c -8.726841,-2.14764 -5.61097,-19.73605 -15.046901,-26.28362 -30.142184,10.75138 -15.199189,36.46076 -6.52247,38.42446 2.46248,0.39398 17.738261,-1.98649 17.048841,-10.65553 2.43799,0.0869 3.41306,-0.7406 4.52053,-1.48531 z"
         id="path28"
         sodipodi:nodetypes="ccccc" /><path
         style="fill:#cccccc;stroke:#000000;stroke-width:0.403;stroke-linecap:round;stroke-linejoin:round"
         d="m 24.67903,46.845325 c 7.129005,5.63258 26.028664,5.34183 31.599624,-3.56181 2.373441,-6.16602 0.88986,-15.98501 -0.37963,-23.15682 -1.42377,-7.99023 -13.33846,-10.4034797 -19.255979,-9.0821 -4.81266,0.72388 -10.421015,3.18014 -12.420655,7.21495 -3.65818,5.97966 -5.47381,22.81081 0.45664,28.58578 z"
         id="path29"
         sodipodi:nodetypes="cccccc" /><path
         style="fill:#f9f9f9;stroke:#000000;stroke-width:0.403;stroke-linecap:round;stroke-linejoin:round"
         d="m 54.015874,48.060285 c -12.59824,0.96978 -18.901099,-22.75728 -13.26305,-29.80074 0.31807,8.65223 6.0053,11.69127 14.33856,11.96401 -3.01979,-0.85837 -5.94834,-2.2251 -8.12823,-7.76292 3.03552,5.29364 10.05864,4.27778 14.429891,7.30628 -4.859451,-5.42273 -0.66091,-14.7849 -12.028601,-18.88281 C 38.150724,6.8416753 25.91541,8.9766053 20.3866,18.716185 c -4.481976,7.89546 -1.92032,19.79318 -12.6946504,24.01936 2.3126924,0.56403 4.9562394,-0.13803 7.3095444,-1.26549 0.369191,7.51197 7.474656,8.51491 15.567521,8.00636 8.524779,2.85901 17.341669,0.69438 23.446859,-1.41613 z"
         id="path30"
         sodipodi:nodetypes="cccccsscccc" /><path
         style="fill:#f9f9f9;stroke:#000000;stroke-width:0.403;stroke-linecap:round;stroke-linejoin:round"
         d="m 34.022555,53.605235 c 6.106159,-3.21681 4.711199,3.69773 4.262209,5.8121 -0.632459,9.83897 -6.231369,12.23244 -14.101707,25.29144 -1.12159,1.45633 -2.72776,2.80702 -5.34762,1.71688 -2.364758,-1.18458 -5.598873,-0.8031 -6.382243,-4.14737 -0.293471,-1.19008 -1.505764,-3.76373 1.679054,-4.52053 7.818649,-3.75272 10.690869,-18.21312 19.890307,-24.15252 z"
         id="path31"
         sodipodi:nodetypes="ccccccc" /></g></g></svg>
