<?xml version="1.0" encoding="UTF-8" standalone="no"?>
<!-- Created with Inkscape (http://www.inkscape.org/) -->

<svg
   width="34.062mm"
   height="49.192417mm"
   viewBox="0 0 34.062 49.192417"
   version="1.1"
   id="svg1"
   inkscape:version="1.3 (0e150ed6c4, 2023-07-21)"
   sodipodi:docname="Player.svg"
   xml:space="preserve"
   xmlns:inkscape="http://www.inkscape.org/namespaces/inkscape"
   xmlns:sodipodi="http://sodipodi.sourceforge.net/DTD/sodipodi-0.dtd"
   xmlns="http://www.w3.org/2000/svg"
   xmlns:svg="http://www.w3.org/2000/svg"><sodipodi:namedview
     id="namedview1"
     pagecolor="#505050"
     bordercolor="#eeeeee"
     borderopacity="1"
     inkscape:showpageshadow="0"
     inkscape:pageopacity="0"
     inkscape:pagecheckerboard="0"
     inkscape:deskcolor="#505050"
     inkscape:document-units="mm"
     inkscape:zoom="2.0485264"
     inkscape:cx="97.631154"
     inkscape:cy="57.846459"
     inkscape:window-width="1920"
     inkscape:window-height="1009"
     inkscape:window-x="1912"
     inkscape:window-y="-8"
     inkscape:window-maximized="1"
     inkscape:current-layer="layer1" /><defs
     id="defs1" /><g
     inkscape:label="Layer 1"
     inkscape:groupmode="layer"
     id="layer1"
     transform="translate(-87.841676,-123.825)"><path
       style="fill:#f9f9f9;fill-opacity:0.993808;stroke:#000000;stroke-width:1.20854;stroke-linecap:round;stroke-linejoin:round;stroke-dasharray:none"
       d="m 104.98729,161.88044 -0.98759,10.37016 5.03443,0.16255 1.05328,-9.71999 c 0.34871,-3.43332 -4.52761,-3.72616 -5.10012,-0.81272 z"
       id="path8"
       sodipodi:nodetypes="ccccc" /><g
       id="g15"
       transform="translate(435.11833,349.96358)"><path
         style="fill:#f9f9f9;fill-opacity:0.993808;stroke:#000000;stroke-width:1.18741;stroke-linecap:round;stroke-linejoin:round;stroke-dasharray:none"
         d="m -323.59868,-196.11039 c -0.0801,-3.23355 5.77576,-4.62231 4.73495,-0.30524 -0.70005,2.11965 0.10384,4.09043 0.58278,6.09336 l -4.07521,0.96446 c -1.03442,-2.11393 -1.2361,-4.4117 -1.24252,-6.75258 z"
         id="path11"
         sodipodi:nodetypes="ccccc" /><path
         style="fill:#f9f9f9;fill-opacity:0.993808;stroke:#000000;stroke-width:1.18741;stroke-linecap:round;stroke-linejoin:round;stroke-dasharray:none"
         d="m -317.75439,-192.04422 c -2.39443,0.0935 -5.98141,0.937 -4.83887,3.94702 1.03337,2.72245 3.64219,4.12539 6.80862,0.74341 -1.06794,-1.27097 -1.80798,-2.99327 -1.96975,-4.69043 z"
         id="path12"
         sodipodi:nodetypes="cscc" /></g><g
       id="g42"><path
         style="fill:#999999;fill-opacity:0.993808;stroke:#1a1a1a;stroke-width:0.429855;stroke-linecap:round;stroke-linejoin:round;stroke-dasharray:none"
         d="m 124.28751,152.1502 c 0.69883,0.20608 -0.004,1.30152 0.46869,1.60738 0.36975,0.50523 1.4766,-0.095 1.61628,0.60636 -4.69966,2.83248 -8.11304,6.62114 -11.91544,10.12061 -0.8701,0.33672 -1.10922,0.12039 -0.64014,-0.7167 3.61822,-3.79902 7.69251,-7.33607 10.47063,-11.61767 z"
         id="path41"
         sodipodi:nodetypes="cccccc" /><g
         id="g41"
         transform="rotate(46.017452,135.61306,123.0302)"
         style="fill:#1a1a1a;stroke:#000000"><path
           style="fill:#1a1a1a;fill-opacity:0.993808;stroke:#000000;stroke-width:0.403;stroke-linecap:round;stroke-linejoin:round;stroke-dasharray:none"
           d="m 150.26942,146.95182 c 0,0 -0.37051,-1.09634 -1.45554,-1.61196 -0.15375,-1.17887 0.79272,-1.55521 1.46696,-2.20901 0.9653,0.69643 1.4816,1.3518 1.47838,2.22042 -1.1236,0.48047 -1.4898,1.60055 -1.4898,1.60055 z"
           id="path35"
           sodipodi:nodetypes="ccccc" /><path
           style="fill:#1a1a1a;fill-opacity:0.993808;stroke:#000000;stroke-width:0.341676;stroke-linecap:round;stroke-linejoin:round;stroke-dasharray:none"
           d="m 150.27393,148.74983 c -0.19101,0.59728 -0.63901,0.50617 -0.7066,1.3724 -0.0455,0.42739 0.28333,1.2405 0.63884,1.39753 0.31384,-0.14966 0.69345,-0.6879 0.73559,-1.45411 -0.0916,-0.68527 -0.46123,-0.65031 -0.66783,-1.31582 z"
           id="path36"
           sodipodi:nodetypes="ccccc" /><g
           id="g40"
           transform="translate(0.04404381)"
           style="fill:#1a1a1a;stroke:#000000"><path
             style="fill:#1a1a1a;fill-opacity:0.993808;stroke:#000000;stroke-width:0.403;stroke-linecap:round;stroke-linejoin:round;stroke-dasharray:none"
             d="m 149.48835,148.6435 c -0.98118,0.0521 -1.53242,-0.006 -2.3827,-0.49954 -1.15246,-0.66857 -1.09663,-1.55492 -1.15627,-2.14899 2.49757,-1.20944 3.18341,0.38552 3.99285,1.44951 -0.52734,-0.007 -0.9594,0.51552 -0.45388,1.19902 z"
             id="path37"
             sodipodi:nodetypes="csccc" /><path
             style="fill:#1a1a1a;fill-opacity:0.993808;stroke:#000000;stroke-width:0.403;stroke-linecap:round;stroke-linejoin:round;stroke-dasharray:none"
             d="m 149.39703,149.11156 c -0.7078,0.10888 -1.41559,0.10112 -2.12339,-0.27399 -0.4781,0.26433 -0.73558,0.90811 -0.83337,1.82657 0.89045,0.18441 1.78091,0.55907 2.67136,-0.12557 -0.30784,-0.58378 -0.017,-1.00695 0.2854,-1.42701 z"
             id="path38"
             sodipodi:nodetypes="ccccc" /><path
             style="fill:#1a1a1a;fill-opacity:0.993808;stroke:#000000;stroke-width:0.403;stroke-linecap:round;stroke-linejoin:round;stroke-dasharray:none"
             d="m 150.98108,148.65492 c 0.98118,0.0521 1.53242,-0.006 2.3827,-0.49954 1.15246,-0.66857 1.09663,-1.55492 1.15627,-2.14899 -2.49757,-1.20944 -3.18341,0.38552 -3.99285,1.44951 0.52734,-0.007 0.9594,0.51552 0.45388,1.19902 z"
             id="path39"
             sodipodi:nodetypes="csccc" /><path
             style="fill:#1a1a1a;fill-opacity:0.993808;stroke:#000000;stroke-width:0.403;stroke-linecap:round;stroke-linejoin:round;stroke-dasharray:none"
             d="m 151.0295,149.14581 c 0.7078,0.10888 1.41559,0.10112 2.12339,-0.27399 0.4781,0.26433 0.73558,0.90811 0.83337,1.82657 -0.89045,0.18441 -1.78091,0.55907 -2.67136,-0.12557 0.30784,-0.58378 0.017,-1.00695 -0.2854,-1.42701 z"
             id="path40"
             sodipodi:nodetypes="ccccc" /></g></g></g><path
       style="fill:#f9f9f9;fill-opacity:0.993808;stroke:#000000;stroke-width:1.20854;stroke-linecap:round;stroke-linejoin:round;stroke-dasharray:none"
       d="m 115.72501,161.7179 1.52449,10.37016 -4.91327,0.13723 -1.71134,-9.69468 c -0.34871,-3.43331 4.52761,-3.72616 5.10012,-0.81271 z"
       id="path9"
       sodipodi:nodetypes="ccccc" /><path
       style="fill:#f9f9f9;fill-opacity:0.993808;stroke:#000000;stroke-width:1.2072;stroke-linecap:round;stroke-linejoin:round;stroke-dasharray:none"
       d="m 104.0134,148.78179 c 3.80304,1.08056 3.83789,1.72558 8.23006,0.64486 1.81996,0.44079 2.90037,1.40501 3.55146,2.69488 1.50161,2.97476 1.03113,6.91863 1.10129,10.63452 -4.37999,-1.2231 -8.14959,2.80281 -13.87,0.69358 0.34366,-5.16229 -0.1691,-7.3648 -0.60004,-10.32575 -0.38884,-2.67168 0.60226,-3.23637 1.58723,-4.34209 z"
       id="path7"
       sodipodi:nodetypes="ccsccsc" /><path
       style="fill:#1a1a1a;fill-opacity:0.993808;stroke:#000000;stroke-width:1.046;stroke-linecap:round;stroke-linejoin:round;stroke-dasharray:none"
       d="m 90.31736,152.30578 c -1.76586,1.50458 -2.27881,5.08417 -1.74435,6.63702 0.90932,-0.70079 1.40255,-1.45479 1.39078,-2.4225 l 0.33229,2.50759 c 0.3009,-1.86268 1.89117,-1.59376 1.8507,-5.27558 -0.51441,-1.01639 -1.17784,-1.19826 -1.82942,-1.44653 z"
       id="path15"
       sodipodi:nodetypes="cccccc" /><path
       style="fill:#1a1a1a;fill-opacity:0.993808;stroke:#000000;stroke-width:1.046;stroke-linecap:round;stroke-linejoin:round;stroke-dasharray:none"
       d="m 90.24665,152.32902 c 0.24456,1.59883 0.90195,1.74665 2.02235,1.52123 1.66915,-1.16491 3.18816,-2.16014 3.68673,-4.88583 l -1.61071,-1.41385 c -1.37388,0.37136 -2.75916,1.18577 -4.03812,2.93341 1.61989,0.003 1.88139,-0.22285 2.74809,-0.62665 -1.10576,0.73609 -2.07567,1.54905 -2.80834,2.47169 z"
       id="path16"
       sodipodi:nodetypes="ccccccc" /><path
       style="fill:#1a1a1a;fill-opacity:0.993808;stroke:#000000;stroke-width:1.003;stroke-linecap:round;stroke-linejoin:round;stroke-dasharray:none"
       d="m 93.61304,148.0208 c 0.28121,1.83841 1.03711,2.00838 2.32539,1.74918 2.38765,-0.68371 3.84334,-2.23539 4.23917,-5.61794 -0.3123,-0.91476 -0.93234,-1.45338 -1.85207,-1.62571 -2.87086,0.67824 -3.73173,3.37362 -4.71249,5.49447 z"
       id="path17"
       sodipodi:nodetypes="ccccc" /><g
       id="g14"
       transform="translate(435.11833,349.96358)"
       inkscape:export-filename="RArm.svg"
       inkscape:export-xdpi="96"
       inkscape:export-ydpi="96"><g
         id="g13"><path
           style="fill:#f9f9f9;fill-opacity:0.993808;stroke:#000000;stroke-width:1.3;stroke-linecap:round;stroke-linejoin:round;stroke-dasharray:none"
           d="m -336.31935,-197.39393 c 0.30298,-3.52826 6.84261,-4.33293 5.18918,0.23912 -1.01751,2.22205 -0.38052,4.46355 -0.10103,6.70084 l -4.55081,0.5578 c -0.87055,-2.42509 -0.81279,-4.94975 -0.53734,-7.49776 z"
           id="path4"
           sodipodi:nodetypes="ccccc" /><path
           style="fill:#f9f9f9;fill-opacity:0.993808;stroke:#000000;stroke-width:1.3;stroke-linecap:round;stroke-linejoin:round;stroke-dasharray:none"
           d="m -330.45045,-192.26419 c -2.61679,-0.18719 -6.62174,0.29793 -5.74165,3.71115 0.796,3.08712 3.46553,4.92849 7.31913,1.63041 -1.00873,-1.51185 -1.60622,-3.47527 -1.57748,-5.34156 z"
           id="path3"
           sodipodi:nodetypes="cscc" /></g></g><g
       id="g12"
       transform="translate(435.11833,349.96358)"><circle
         style="fill:#e6e6e6;fill-opacity:0.993808;stroke:#000000;stroke-width:1.3;stroke-linecap:round;stroke-linejoin:round;stroke-dasharray:none"
         id="path1"
         cx="-324.9873"
         cy="-209.64438"
         r="10.228783" /><path
         style="fill:#1a1a1a;fill-opacity:0.993808;stroke:#000000;stroke-width:0.78624;stroke-linecap:round;stroke-linejoin:round;stroke-dasharray:none"
         d="m -324.17198,-218.16759 c 0,0 2.33607,2.25445 3.81005,2.90083 0.68038,0.29838 2.1215,0.47626 2.1215,0.47626 1.64653,0.23522 2.70651,1.03821 4.63267,3.98323 -0.40783,-4.4045 -0.16342,-11.02602 -8.09635,-12.42595 l -5.02233,0.38967 2.1215,-2.90083 c -3.80703,-0.0546 -10.69512,2.02241 -9.78489,6.92735 -3.17529,-0.30769 -6.08727,3.47593 -4.45949,8.74579 0.74089,2.32814 1.68449,5.48753 5.38767,8.36733 1.19103,-1.6873 -2.27819,-3.20234 -2.13509,-7.51456 0.38624,-1.75251 1.44454,-3.91815 3.93455,-5.13907 l -0.30307,-2.42457 c 3.56819,4.24501 5.3439,0.54111 11.04048,3.46368 -0.13605,-2.90686 -1.93573,-3.54515 -3.2472,-4.84916 z"
         id="path10"
         sodipodi:nodetypes="csccccccccccccc" /><path
         style="fill:#e6e6e6;fill-opacity:0.993808;stroke:#000000;stroke-width:1.10957;stroke-linecap:round;stroke-linejoin:round;stroke-dasharray:none"
         d="m -332.81085,-208.56522 c -3.15798,-2.12386 -3.93536,1.45843 -3.71032,2.91218 0.23312,1.50587 2.92842,2.41236 3.733,1.23951"
         id="path2"
         sodipodi:nodetypes="csc" /></g><path
       style="fill:#f9f9f9;fill-opacity:0.993808;stroke:#000000;stroke-width:1.20854;stroke-linecap:round;stroke-linejoin:round;stroke-dasharray:none"
       d="m 11.649652,165.99022 -0.98759,10.37016 5.03443,0.16255 1.05328,-9.71999 c 0.34871,-3.43332 -4.52761,-3.72616 -5.10012,-0.81272 z"
       id="path5"
       sodipodi:nodetypes="ccccc"
       inkscape:export-filename=".\RLeg.svg"
       inkscape:export-xdpi="96"
       inkscape:export-ydpi="96" /><g
       id="g16"
       transform="translate(364.6128,340.10012)"
       inkscape:export-filename=".\LArm.svg"
       inkscape:export-xdpi="96"
       inkscape:export-ydpi="96"><path
         style="fill:#f9f9f9;fill-opacity:0.993808;stroke:#000000;stroke-width:1.18741;stroke-linecap:round;stroke-linejoin:round;stroke-dasharray:none"
         d="m -323.59868,-196.11039 c -0.0801,-3.23355 5.77576,-4.62231 4.73495,-0.30524 -0.70005,2.11965 0.10384,4.09043 0.58278,6.09336 l -4.07521,0.96446 c -1.03442,-2.11393 -1.2361,-4.4117 -1.24252,-6.75258 z"
         id="path6"
         sodipodi:nodetypes="ccccc" /><path
         style="fill:#f9f9f9;fill-opacity:0.993808;stroke:#000000;stroke-width:1.18741;stroke-linecap:round;stroke-linejoin:round;stroke-dasharray:none"
         d="m -317.75439,-192.04422 c -2.39443,0.0935 -5.98141,0.937 -4.83887,3.94702 1.03337,2.72245 3.64219,4.12539 6.80862,0.74341 -1.06794,-1.27097 -1.80798,-2.99327 -1.96975,-4.69043 z"
         id="path13"
         sodipodi:nodetypes="cscc" /></g><path
       style="fill:#f9f9f9;fill-opacity:0.993808;stroke:#000000;stroke-width:1.20854;stroke-linecap:round;stroke-linejoin:round;stroke-dasharray:none"
       d="m 31.70287,166.193 1.52449,10.37016 -4.91327,0.13723 -1.71134,-9.69468 c -0.34871,-3.43331 4.52761,-3.72616 5.10012,-0.81271 z"
       id="path18"
       sodipodi:nodetypes="ccccc"
       inkscape:export-filename=".\LLeg.svg"
       inkscape:export-xdpi="96"
       inkscape:export-ydpi="96" /><path
       style="fill:#f9f9f9;fill-opacity:0.993808;stroke:#000000;stroke-width:1.2072;stroke-linecap:round;stroke-linejoin:round;stroke-dasharray:none"
       d="m 16.155466,135.44784 c 3.80304,1.08056 3.83789,1.72558 8.23006,0.64486 1.81996,0.44079 2.90037,1.40501 3.55146,2.69488 1.50161,2.97476 1.03113,6.91863 1.10129,10.63452 -4.37999,-1.2231 -8.14959,2.80281 -13.87,0.69358 0.34366,-5.16229 -0.1691,-7.3648 -0.60004,-10.32575 -0.38884,-2.67168 0.60226,-3.23637 1.58723,-4.34209 z"
       id="path19"
       sodipodi:nodetypes="ccsccsc"
       inkscape:export-filename="Body.svg"
       inkscape:export-xdpi="96"
       inkscape:export-ydpi="96" /><path
       style="fill:#1a1a1a;fill-opacity:0.993808;stroke:#000000;stroke-width:1.046;stroke-linecap:round;stroke-linejoin:round;stroke-dasharray:none"
       d="m -19.550721,153.3104 c -1.76586,1.50458 -2.27881,5.08417 -1.74435,6.63702 0.90932,-0.70079 1.40255,-1.45479 1.39078,-2.4225 l 0.33229,2.50759 c 0.3009,-1.86268 1.89117,-1.59376 1.8507,-5.27558 -0.51441,-1.01639 -1.17784,-1.19826 -1.82942,-1.44653 z"
       id="path20"
       sodipodi:nodetypes="cccccc"
       inkscape:export-filename="Hair3.svg"
       inkscape:export-xdpi="96"
       inkscape:export-ydpi="96" /><path
       style="fill:#1a1a1a;fill-opacity:0.993808;stroke:#000000;stroke-width:1.046;stroke-linecap:round;stroke-linejoin:round;stroke-dasharray:none"
       d="m -15.876966,145.20541 c 0.24456,1.59883 0.90195,1.74665 2.02235,1.52123 1.66915,-1.16491 3.18816,-2.16014 3.68673,-4.88583 l -1.61071,-1.41385 c -1.37388,0.37136 -2.75916,1.18577 -4.03812,2.93341 1.61989,0.003 1.88139,-0.22285 2.74809,-0.62665 -1.10576,0.73609 -2.07567,1.54905 -2.80834,2.47169 z"
       id="path21"
       sodipodi:nodetypes="ccccccc"
       inkscape:export-filename="Hair2.svg"
       inkscape:export-xdpi="96"
       inkscape:export-ydpi="96" /><path
       style="fill:#1a1a1a;fill-opacity:0.993808;stroke:#000000;stroke-width:1.003;stroke-linecap:round;stroke-linejoin:round;stroke-dasharray:none"
       d="m -7.3048567,127.7459 c 0.28121,1.83841 1.03711,2.00838 2.32539,1.74918 2.38765,-0.68371 3.84334,-2.23539 4.23916998,-5.61794 -0.31229998,-0.91476 -0.93233998,-1.45338 -1.85206998,-1.62571 -2.87086,0.67824 -3.73173,3.37362 -4.71249,5.49447 z"
       id="path22"
       sodipodi:nodetypes="ccccc"
       inkscape:export-filename="Hair1.svg"
       inkscape:export-xdpi="96"
       inkscape:export-ydpi="96" /><g
       id="g25"
       transform="translate(334.56575,341.37871)"
       inkscape:export-filename="RArm.svg"
       inkscape:export-xdpi="96"
       inkscape:export-ydpi="96"><g
         id="g24"><path
           style="fill:#f9f9f9;fill-opacity:0.993808;stroke:#000000;stroke-width:1.3;stroke-linecap:round;stroke-linejoin:round;stroke-dasharray:none"
           d="m -336.31935,-197.39393 c 0.30298,-3.52826 6.84261,-4.33293 5.18918,0.23912 -1.01751,2.22205 -0.38052,4.46355 -0.10103,6.70084 l -4.55081,0.5578 c -0.87055,-2.42509 -0.81279,-4.94975 -0.53734,-7.49776 z"
           id="path23"
           sodipodi:nodetypes="ccccc" /><path
           style="fill:#f9f9f9;fill-opacity:0.993808;stroke:#000000;stroke-width:1.3;stroke-linecap:round;stroke-linejoin:round;stroke-dasharray:none"
           d="m -330.45045,-192.26419 c -2.61679,-0.18719 -6.62174,0.29793 -5.74165,3.71115 0.796,3.08712 3.46553,4.92849 7.31913,1.63041 -1.00873,-1.51185 -1.60622,-3.47527 -1.57748,-5.34156 z"
           id="path24"
           sodipodi:nodetypes="cscc" /></g></g><g
       id="g26"
       transform="translate(346.80376,328.95804)"
       inkscape:export-filename="Head.svg"
       inkscape:export-xdpi="96"
       inkscape:export-ydpi="96"><circle
         style="fill:#e6e6e6;fill-opacity:0.993808;stroke:#000000;stroke-width:1.3;stroke-linecap:round;stroke-linejoin:round;stroke-dasharray:none"
         id="circle25"
         cx="-324.9873"
         cy="-209.64438"
         r="10.228783" /><path
         style="fill:#1a1a1a;fill-opacity:0.993808;stroke:#000000;stroke-width:0.78624;stroke-linecap:round;stroke-linejoin:round;stroke-dasharray:none"
         d="m -324.17198,-218.16759 c 0,0 2.33607,2.25445 3.81005,2.90083 0.68038,0.29838 2.1215,0.47626 2.1215,0.47626 1.64653,0.23522 2.70651,1.03821 4.63267,3.98323 -0.40783,-4.4045 -0.16342,-11.02602 -8.09635,-12.42595 l -5.02233,0.38967 2.1215,-2.90083 c -3.80703,-0.0546 -10.69512,2.02241 -9.78489,6.92735 -3.17529,-0.30769 -6.08727,3.47593 -4.45949,8.74579 0.74089,2.32814 1.68449,5.48753 5.38767,8.36733 1.19103,-1.6873 -2.27819,-3.20234 -2.13509,-7.51456 0.38624,-1.75251 1.44454,-3.91815 3.93455,-5.13907 l -0.30307,-2.42457 c 3.56819,4.24501 5.3439,0.54111 11.04048,3.46368 -0.13605,-2.90686 -1.93573,-3.54515 -3.2472,-4.84916 z"
         id="path25"
         sodipodi:nodetypes="csccccccccccccc" /><path
         style="fill:#e6e6e6;fill-opacity:0.993808;stroke:#000000;stroke-width:1.10957;stroke-linecap:round;stroke-linejoin:round;stroke-dasharray:none"
         d="m -332.81085,-208.56522 c -3.15798,-2.12386 -3.93536,1.45843 -3.71032,2.91218 0.23312,1.50587 2.92842,2.41236 3.733,1.23951"
         id="path26"
         sodipodi:nodetypes="csc" /></g><g
       id="g35"
       inkscape:export-filename="..\..\Weapons\Orchid.svg"
       inkscape:export-xdpi="96"
       inkscape:export-ydpi="96"
       transform="translate(-74.265781,-14.465683)"><g
         id="g34"
         transform="translate(-20.371613,0.60114322)"
         style="fill:#1a1a1a;stroke:#000000"><path
           style="fill:#1a1a1a;fill-opacity:0.993808;stroke:#000000;stroke-width:0.403;stroke-linecap:round;stroke-linejoin:round;stroke-dasharray:none"
           d="m 150.26942,146.95182 c 0,0 -0.37051,-1.09634 -1.45554,-1.61196 -0.15375,-1.17887 0.79272,-1.55521 1.46696,-2.20901 0.9653,0.69643 1.4816,1.3518 1.47838,2.22042 -1.1236,0.48047 -1.4898,1.60055 -1.4898,1.60055 z"
           id="path28"
           sodipodi:nodetypes="ccccc" /><path
           style="fill:#1a1a1a;fill-opacity:0.993808;stroke:#000000;stroke-width:0.341676;stroke-linecap:round;stroke-linejoin:round;stroke-dasharray:none"
           d="m 150.27393,148.74983 c -0.19101,0.59728 -0.63901,0.50617 -0.7066,1.3724 -0.0455,0.42739 0.28333,1.2405 0.63884,1.39753 0.31384,-0.14966 0.69345,-0.6879 0.73559,-1.45411 -0.0916,-0.68527 -0.46123,-0.65031 -0.66783,-1.31582 z"
           id="path30"
           sodipodi:nodetypes="ccccc" /><g
           id="g32"
           transform="translate(0.04404381)"
           style="fill:#1a1a1a;stroke:#000000"><path
             style="fill:#1a1a1a;fill-opacity:0.993808;stroke:#000000;stroke-width:0.403;stroke-linecap:round;stroke-linejoin:round;stroke-dasharray:none"
             d="m 149.48835,148.6435 c -0.98118,0.0521 -1.53242,-0.006 -2.3827,-0.49954 -1.15246,-0.66857 -1.09663,-1.55492 -1.15627,-2.14899 2.49757,-1.20944 3.18341,0.38552 3.99285,1.44951 -0.52734,-0.007 -0.9594,0.51552 -0.45388,1.19902 z"
             id="path27"
             sodipodi:nodetypes="csccc" /><path
             style="fill:#1a1a1a;fill-opacity:0.993808;stroke:#000000;stroke-width:0.403;stroke-linecap:round;stroke-linejoin:round;stroke-dasharray:none"
             d="m 149.39703,149.11156 c -0.7078,0.10888 -1.41559,0.10112 -2.12339,-0.27399 -0.4781,0.26433 -0.73558,0.90811 -0.83337,1.82657 0.89045,0.18441 1.78091,0.55907 2.67136,-0.12557 -0.30784,-0.58378 -0.017,-1.00695 0.2854,-1.42701 z"
             id="path29"
             sodipodi:nodetypes="ccccc" /><path
             style="fill:#1a1a1a;fill-opacity:0.993808;stroke:#000000;stroke-width:0.403;stroke-linecap:round;stroke-linejoin:round;stroke-dasharray:none"
             d="m 150.98108,148.65492 c 0.98118,0.0521 1.53242,-0.006 2.3827,-0.49954 1.15246,-0.66857 1.09663,-1.55492 1.15627,-2.14899 -2.49757,-1.20944 -3.18341,0.38552 -3.99285,1.44951 0.52734,-0.007 0.9594,0.51552 0.45388,1.19902 z"
             id="path31"
             sodipodi:nodetypes="csccc" /><path
             style="fill:#1a1a1a;fill-opacity:0.993808;stroke:#000000;stroke-width:0.403;stroke-linecap:round;stroke-linejoin:round;stroke-dasharray:none"
             d="m 151.0295,149.14581 c 0.7078,0.10888 1.41559,0.10112 2.12339,-0.27399 0.4781,0.26433 0.73558,0.90811 0.83337,1.82657 -0.89045,0.18441 -1.78091,0.55907 -2.67136,-0.12557 0.30784,-0.58378 0.017,-1.00695 -0.2854,-1.42701 z"
             id="path32"
             sodipodi:nodetypes="ccccc" /></g></g><path
         style="fill:#999999;fill-opacity:0.993808;stroke:#1a1a1a;stroke-width:0.429855;stroke-linecap:round;stroke-linejoin:round;stroke-dasharray:none"
         d="m 128.32988,152.00273 c 0.63358,-0.35973 0.93373,0.9067 1.48207,0.77898 0.62031,0.0848 0.95701,-1.12849 1.55871,-0.74191 -1.22551,5.34863 -0.86976,10.43573 -0.99225,15.60192 -0.36194,0.85991 -0.68366,0.88174 -0.96024,-0.0371 -0.22095,-5.24168 0.0633,-10.62961 -1.08829,-15.60192 z"
         id="path34"
         sodipodi:nodetypes="cccccc" /></g></g></svg>
