<?xml version="1.0" encoding="UTF-8" standalone="no"?>
<!-- Created with Inkscape (http://www.inkscape.org/) -->

<svg
   width="8.9736652mm"
   height="24.974642mm"
   viewBox="0 0 8.9736652 24.974642"
   version="1.1"
   id="svg1"
   inkscape:version="1.3 (0e150ed6c4, 2023-07-21)"
   sodipodi:docname="Player.svg"
   xml:space="preserve"
   xmlns:inkscape="http://www.inkscape.org/namespaces/inkscape"
   xmlns:sodipodi="http://sodipodi.sourceforge.net/DTD/sodipodi-0.dtd"
   xmlns="http://www.w3.org/2000/svg"
   xmlns:svg="http://www.w3.org/2000/svg"><sodipodi:namedview
     id="namedview1"
     pagecolor="#505050"
     bordercolor="#eeeeee"
     borderopacity="1"
     inkscape:showpageshadow="0"
     inkscape:pageopacity="0"
     inkscape:pagecheckerboard="0"
     inkscape:deskcolor="#505050"
     inkscape:document-units="mm"
     inkscape:zoom="1.4485269"
     inkscape:cx="65.583868"
     inkscape:cy="83.878316"
     inkscape:window-width="1920"
     inkscape:window-height="1009"
     inkscape:window-x="1912"
     inkscape:window-y="-8"
     inkscape:window-maximized="1"
     inkscape:current-layer="layer1" /><defs
     id="defs1" /><g
     inkscape:label="Layer 1"
     inkscape:groupmode="layer"
     id="layer1"
     transform="translate(-125.42031,-143.5305)"><g
       id="g33"><g
         id="g35"><g
           id="g34"
           transform="translate(-20.371613,0.60114322)"
           style="fill:#1a1a1a;stroke:#000000"><path
             style="fill:#1a1a1a;fill-opacity:0.993808;stroke:#000000;stroke-width:0.403;stroke-linecap:round;stroke-linejoin:round;stroke-dasharray:none"
             d="m 150.26942,146.95182 c 0,0 -0.37051,-1.09634 -1.45554,-1.61196 -0.15375,-1.17887 0.79272,-1.55521 1.46696,-2.20901 0.9653,0.69643 1.4816,1.3518 1.47838,2.22042 -1.1236,0.48047 -1.4898,1.60055 -1.4898,1.60055 z"
             id="path28"
             sodipodi:nodetypes="ccccc" /><path
             style="fill:#1a1a1a;fill-opacity:0.993808;stroke:#000000;stroke-width:0.341676;stroke-linecap:round;stroke-linejoin:round;stroke-dasharray:none"
             d="m 150.27393,148.74983 c -0.19101,0.59728 -0.63901,0.50617 -0.7066,1.3724 -0.0455,0.42739 0.28333,1.2405 0.63884,1.39753 0.31384,-0.14966 0.69345,-0.6879 0.73559,-1.45411 -0.0916,-0.68527 -0.46123,-0.65031 -0.66783,-1.31582 z"
             id="path30"
             sodipodi:nodetypes="ccccc" /><g
             id="g32"
             transform="translate(0.04404381)"
             style="fill:#1a1a1a;stroke:#000000"><path
               style="fill:#1a1a1a;fill-opacity:0.993808;stroke:#000000;stroke-width:0.403;stroke-linecap:round;stroke-linejoin:round;stroke-dasharray:none"
               d="m 149.48835,148.6435 c -0.98118,0.0521 -1.53242,-0.006 -2.3827,-0.49954 -1.15246,-0.66857 -1.09663,-1.55492 -1.15627,-2.14899 2.49757,-1.20944 3.18341,0.38552 3.99285,1.44951 -0.52734,-0.007 -0.9594,0.51552 -0.45388,1.19902 z"
               id="path27"
               sodipodi:nodetypes="csccc" /><path
               style="fill:#1a1a1a;fill-opacity:0.993808;stroke:#000000;stroke-width:0.403;stroke-linecap:round;stroke-linejoin:round;stroke-dasharray:none"
               d="m 149.39703,149.11156 c -0.7078,0.10888 -1.41559,0.10112 -2.12339,-0.27399 -0.4781,0.26433 -0.73558,0.90811 -0.83337,1.82657 0.89045,0.18441 1.78091,0.55907 2.67136,-0.12557 -0.30784,-0.58378 -0.017,-1.00695 0.2854,-1.42701 z"
               id="path29"
               sodipodi:nodetypes="ccccc" /><path
               style="fill:#1a1a1a;fill-opacity:0.993808;stroke:#000000;stroke-width:0.403;stroke-linecap:round;stroke-linejoin:round;stroke-dasharray:none"
               d="m 150.98108,148.65492 c 0.98118,0.0521 1.53242,-0.006 2.3827,-0.49954 1.15246,-0.66857 1.09663,-1.55492 1.15627,-2.14899 -2.49757,-1.20944 -3.18341,0.38552 -3.99285,1.44951 0.52734,-0.007 0.9594,0.51552 0.45388,1.19902 z"
               id="path31"
               sodipodi:nodetypes="csccc" /><path
               style="fill:#1a1a1a;fill-opacity:0.993808;stroke:#000000;stroke-width:0.403;stroke-linecap:round;stroke-linejoin:round;stroke-dasharray:none"
               d="m 151.0295,149.14581 c 0.7078,0.10888 1.41559,0.10112 2.12339,-0.27399 0.4781,0.26433 0.73558,0.90811 0.83337,1.82657 -0.89045,0.18441 -1.78091,0.55907 -2.67136,-0.12557 0.30784,-0.58378 0.017,-1.00695 -0.2854,-1.42701 z"
               id="path32"
               sodipodi:nodetypes="ccccc" /></g></g><path
           style="fill:#999999;fill-opacity:0.993808;stroke:#1a1a1a;stroke-width:0.429855;stroke-linecap:round;stroke-linejoin:round;stroke-dasharray:none"
           d="m 128.32988,152.00273 c 0.63358,-0.35973 0.93373,0.9067 1.48207,0.77898 0.62031,0.0848 0.95701,-1.12849 1.55871,-0.74191 -1.22551,5.34863 -0.86976,10.43573 -0.99225,15.60192 -0.36194,0.85991 -0.68366,0.88174 -0.96024,-0.0371 -0.22095,-5.24168 0.0633,-10.62961 -1.08829,-15.60192 z"
           id="path34"
           sodipodi:nodetypes="cccccc" /></g></g></g></svg>
